# xmcd
#
# Track frame offsets:
# 150
# 30243
# 51167
# 81448
# 97709
# 135919
# 191258
# 205054
#
# Disc length: 3785 seconds
#
#
# Revision: 0
# Processed by: cddbd v1.5.2PL0 Copyright (c) Steve Scherf et al.
# Submitted via: FreeRIP 2.96 
#
DISCID=550ec708
DTITLE=Henrik Freischlader - Henrik Freischlader Band Live CD2
DYEAR=2008
DGENRE=Blues
TTITLE0=HFB Overture
TTITLE1=I Loved Another Woman
TTITLE2=Drum Solo By Dirk Sengotta
TTITLE3=She Ain't Got The Blues
TTITLE4=Let The Good Times Roll
TTITLE5=Lonely World
TTITLE6=Fire
TTITLE7=Voodoo Child
EXTD=recorded live in Wuppertal, March 7th+8th 2008
EXTT0=
EXTT1=
EXTT2=
EXTT3=
EXTT4=
EXTT5=
EXTT6=
EXTT7=
PLAYORDER=
